<svg xmlns="http://www.w3.org/2000/svg" id="Layer_1" data-name="Layer 1" viewBox="0 0 403.35 199.33"><defs><style>.cls-1{fill:#fff}</style></defs><path d="m203.66 18.04-.3-.28.24.3a1.12 1.12 0 0 0 .18.2.94.94 0 0 0-.12-.22zm-.5-.41a1.31 1.31 0 0 0-.47-.12 3.35 3.35 0 0 1 .54.16zm-1.88 5.41c.22.51.41 1 .58 1.49a9 9 0 0 0-.58-1.49z"/><path d="M316.64 62.13c.23-10.45 10.89-25.44 20.39-28.65 7.23-2.44 12.51 1.13 10.74 8.25-3 11.9-8.84 22.23-21 27.34-7.29 3.07-10.29.89-10.13-6.94zM82.1 23.49c0 9.43-3.52 14.57-5.56 20.09-1.59 4.29-5.77 3.15-9.17 3.14-1.51 0-3.73.22-4-1.73-.47-3.43 3-4.51 4.81-6.55 3.92-4.4 8.06-8.66 13.92-14.95zm143.38 36.85c1.7-10.55 7.47-20.43 19.16-26.1 7.78-3.77 13.41 0 11.71 8.43-2.46 12.22-9.15 22-21.07 27-7.19 3-10.15.52-9.8-9.33z" class="cls-1"/><path id="Z_part" d="M203.82 18.18a1.12 1.12 0 0 1-.18-.2h.06a.82.82 0 0 1 .12.2zm-.55-.59a3.35 3.35 0 0 0-.54-.16 1.31 1.31 0 0 1 .47.12z" data-name="Z part" transform="translate(-.04 .04)"/><path d="M47.83 107.88c1.41 18.94 1.43 18.92 19 19 87.46.31 174.91.94 262.35-1.53 7.1-.2 14.25 0 21.35.46 25.31 1.76 38.41 19.2 32.68 44-2.51 10.85-7.69 20.54-16.78 27.61-2.55 2-5.5 3.58-6.08-1.45-1.25-10.87-9.25-12.48-17.62-12.57-24.62-.27-49.25 0-73.87-.05-68 0-136-.26-204.08 0-15.24.06-28.56-2.88-36.52-17.1-8.18-14.62-4.49-28.87 3.06-42.46 3.64-6.5 8.28-12.22 16.51-15.91zM398.79 11.4c-5.32-8.36-43.42-11.67-47.53-3.13-4.53 9.38-11 7.43-17.86 8.08-8.07.76-16.09 1.83-23.13 6.38-2.3 1.48-4.68 2.32-7.14.29a24.52 24.52 0 0 0-12.36-5.53c-6.85-1-13.94.68-20.76 2.49-4.92 1.31-8.55 1.48-12.67-.88a34.76 34.76 0 0 0-30-2.49c-8 2.94-15.29 9.09-23.66 1.38a.94.94 0 0 1 .12.22 1.12 1.12 0 0 1-.18-.2l-.24-.3-.13-.09a3.35 3.35 0 0 0-.54-.16 1.31 1.31 0 0 1 .47.12 26.28 26.28 0 0 0-7.9-3c-4.25-.95-28.53-1.06-37.41-1.07h-3.25a40 40 0 0 0-14 2.75c-11.91 4.82-11.81 5.48-18.11-5.94-3-5.39-6.3-10-13-10.07C94.28.1 79.04-.22 63.83.25 53.96.56 50.12 5.5 52.36 14.72c1.51 6.15.09 10.37-4.47 14.58C33.37 42.69 19.26 56.54 4.7 69.89c-5.09 4.68-5.74 9.36-3.4 15.55 5.85 15.49 9.82 18 30.56 18.21 17 .16 16.9.15 18.29-16.55.2-2.36-1.16-6.24 1.85-6.72 4-.64 3.47 3.6 4.11 6.23 3.27 13.57 9.08 18.27 22.43 18.24 4.21 0 8.42.18 12.63.15h9a4.33 4.33 0 0 0 2.6-.85c3.6-2.69 4.47-4.48 8.16-1.07a7.13 7.13 0 0 0 4.82 1.91h3.76c7 0 26 .6 46.61.4 5.57-.06 10.15-.67 14.29-3.59a21 21 0 0 0 7.16-9.58c3.22-8 6.27-6.12 10.53-1 10 12.21 20.76 15.27 35.12 8.28 8.52-4.15 15.37-6.94 22.94 1.3 2.18 2.38 6.57 2.69 10.2 2a60.7 60.7 0 0 0 20-7.18c3.69-2.15 7.48-3.12 10.68.24 10.53 11 21.88 9.21 33.37 2.2 4-2.46 7.19-2.51 10.22 1a17.27 17.27 0 0 0 5.6 4.13c3 1.72 6.1 1.38 9.66 1 3.93-.42 8.4-2.46 17.17-6.51a36.27 36.27 0 0 0 7.66-4.53 14.73 14.73 0 0 0 4.94-5.89 9.92 9.92 0 0 0 0-7.87c-3.42-9.14.35-16.18 4.95-23.5a142.68 142.68 0 0 0 10.64-19.45c3.63-8.54 2.42-17.33-2.46-25.04zM102.18 74.09c2.27 4.26 1.33 7.84-4.27 8.07-9.37.37-18.76.59-28.13.49-2.33 0-5.65.29-6.77-2.68-1.22-3.21 1.32-5.33 3.07-7.65 2-2.59 6.78-3.87 4.59-8.53-2.09-4.46-6.34-3.76-10.2-3.63-6 .19-12.31-1.78-17.28 3.76-3 3.34-5.59 6.27-2.74 11s.65 7-4.33 7.67c-7.1 1-16.29 3-23.35 1-2.59-.73-4.17-.73-4.8-4.89-.51-3.29 1.58-5.66 3.92-7.36 13.63-10 24.46-23.06 37-34.28C52.74 33.61 56.2 29.72 59.8 26c3.3-3.41 5.71-6.58 2.17-11.77-3.78-5.56.62-7.68 5.27-8 6.12-.45 12.3-.11 18.45-.11a.33.33 0 0 1 0 .14c5.83 0 11.68-.34 17.48.07 11.55.8 13.52 4.15 9.77 14.92-3.83 11-7.47 22-11.08 33.11-2.16 6.57-3.23 13.13.32 19.73zm54.3-9.6c-2 1.32-5.37 2.54-3.82 5.61s4.58 1 7 .59c5.88-1.1 10.51-4.88 15.76-7.34 2.34-1.1 5-2.32 7.37-.6 2.67 1.91 1.22 4.57.75 7.09-1.45 7.81-6 11.27-13.92 12.25-17.82 2.2-35.56.72-53.34.11-6.1-.21-7.89-3.29-7.46-8.73a17.31 17.31 0 0 1 8.93-14.2c7.21-4.23 14.74-8.09 22.14-12.07 5.13-2.75 10.37-5.31 15.42-8.19 2.18-1.24 5.11-3 3.53-6-1.75-3.26-5-2-7.72-.82a20.05 20.05 0 0 0-3.29 2c-3.2 2.19-7 5.55-10.34 2.18s-.95-7.91.88-11.71c2.46-5.15 7.11-6.16 12.22-6.16h29.73c3.73.12 10.45.37 14.81.53a7 7 0 0 1 4.66 1.91 7.52 7.52 0 0 1 1.49 2.1 9 9 0 0 1 .58 1.49v.1c.16.5.29 1 .4 1.44v.05c1.23 5.5-1.44 9.27-8.46 13.87-12.39 8.24-24.9 16.29-37.32 24.5zm123.48 9.46c6.32 2.67 1.73 6.5-1.53 8.24-10.79 5.73-22.41 7.9-33.36 1.58-5.27-3-9.18-3.31-14.24-1a39.56 39.56 0 0 1-8.43 2.27c-20.73 4.24-33.25-10.19-26.56-30.59 4.39-13.4 16.15-25 30.84-30.77a37.8 37.8 0 0 1 7-2h.28a28 28 0 0 1 3.52-.67 26.82 26.82 0 0 1 4.2-.23 45.69 45.69 0 0 1 7.48.64c7.28 1.21 13.15 3.78 14.69 6.22h.17c1.59-.53 12.61-4.2 20.75-5.44a2.62 2.62 0 0 1 .56 0 7.88 7.88 0 0 1 1.19 0 7.68 7.68 0 0 1 2.28.44l.18.06a6.2 6.2 0 0 1 2.76 2.06 6 6 0 0 1 1.37 3.28 2.54 2.54 0 0 1 0 .39 2.24 2.24 0 0 1-.06.52 1 1 0 0 1-.09.32 18.3 18.3 0 0 1-.81 2.29 171.69 171.69 0 0 1-15 28.25c-3.51 5.22-6.62 10.19 2.77 14.14zm106.52-45.23q-8.52 15.78-16.82 31.65c-2.65 5.07-5.11 10 2.88 13.19 4.91 2 3.71 5.23.16 8-9.26 7.33-25.29 8.55-35.54 2-4.15-2.65-7.64-2.64-11.73-.67-5.06 2.43-10.45 3.09-16 3.09-17.22 0-26.09-12.61-21-30.34 6.47-22.36 42.45-47.16 65.91-30.34 1.59 1.13 3.52 3.26 5.89.73 1.73-1.85 2.63-4.21 1.45-6.2-6.19-10.47.67-10.41 7.95-10.19 1.94.06 3.88 0 5.83 0 19.63-.05 20.5 1.5 11.02 19.08z" class="cls-1"/></svg>